name analog
datacolumns 19
datarows 59
range 0.149 0.178
endheader
time	ground_force_vx	ground_force_vy	ground_force_vz	ground_force_px	ground_force_py	ground_force_pz	l_ground_force_vx	l_ground_force_vy	l_ground_force_vz	l_ground_force_px	l_ground_force_py	l_ground_force_pz	ground_torque_x	ground_torque_y	ground_torque_z	l_ground_torque_x	l_ground_torque_y	l_ground_torque_z
0.149	-0.0	-0.0	-0.0	-2.0602972507476807	6.393129825592041	-92.4035415649414	9.790057182312012	-3.3320720195770264	-414.6966552734375	-0.0	-0.0	-0.0	-0.0	-0.0	-0.0	137140.875	-35510.0859375	1438.10205078125
0.1495	-0.0	-0.0	-0.0	-0.9649338126182556	5.631360054016113	-88.45536041259766	9.403343200683594	-3.2522432804107666	-419.5845031738281	-0.0	-0.0	-0.0	-0.0	-0.0	-0.0	138297.546875	-35504.05078125	1268.0211181640625
0.15	-0.0	-0.0	-0.0	-0.6648627519607544	4.950949668884277	-85.30964660644531	9.321341514587402	-3.557147979736328	-421.5484008789063	-0.0	-0.0	-0.0	-0.0	-0.0	-0.0	139191.96875	-35502.44921875	1062.5205078125
0.1505	-0.0	-0.0	-0.0	0.1207020282745361	4.674978733062744	-80.17184448242188	8.210321426391602	-3.782582998275757	-424.568359375	-0.0	-0.0	-0.0	-0.0	-0.0	-0.0	139861.9375	-35414.68359375	897.858642578125
0.151	-0.0	-0.0	-0.0	0.8340258598327637	3.3133764266967773	-76.38404846191406	7.742362499237059	-4.1661906242370605	-426.9159240722656	-0.0	-0.0	-0.0	-0.0	-0.0	-0.0	141187.046875	-35762.9140625	737.8484497070312
0.1515	-0.0	-0.0	-0.0	1.021289944648743	2.7231040000915527	-70.3802719116211	7.3384013175964355	-4.205333232879639	-431.9593200683594	-0.0	-0.0	-0.0	-0.0	-0.0	-0.0	141787.03125	-35651.5	546.3275756835938
0.152	-0.0	-0.0	-0.0	1.353281021118164	2.461414098739624	-66.18031311035156	6.485860347747803	-4.327762603759766	-432.8901672363281	-0.0	-0.0	-0.0	-0.0	-0.0	-0.0	142759.0625	-35323.5	235.91094970703125
0.1525	-0.0	-0.0	-0.0	1.7594544887542725	0.9753081798553468	-61.806488037109375	5.943622589111328	-4.833070755004883	-436.43951416015625	-0.0	-0.0	-0.0	-0.0	-0.0	-0.0	143233.125	-35194.32421875	-10.125152587890623
0.153	-0.0	-0.0	-0.0	2.359017133712769	0.6588376760482788	-57.42993927001953	5.273031234741211	-5.118907451629639	-437.5994567871094	-0.0	-0.0	-0.0	-0.0	-0.0	-0.0	144060.1875	-34723.92578125	-142.35227966308594
0.1535	-0.0	-0.0	-0.0	2.819432020187378	0.2031413912773132	-52.21321868896485	4.5101704597473145	-5.716141700744629	-439.6798095703125	-0.0	-0.0	-0.0	-0.0	-0.0	-0.0	144406.109375	-34791.26171875	-388.5848693847656
0.154	-0.0	-0.0	-0.0	3.1722936630249023	-1.0981826782226562	-49.14870834350586	4.219280242919922	-6.199210166931152	-442.1788330078125	-0.0	-0.0	-0.0	-0.0	-0.0	-0.0	145337.96875	-34823.109375	-461.1695861816406
0.1545	-0.0	-0.0	-0.0	3.4682583808898926	-0.8271916508674622	-43.44113159179688	3.9169437885284415	-6.207422256469727	-446.3680419921875	-0.0	-0.0	-0.0	-0.0	-0.0	-0.0	146265.75	-34689.71484375	-541.1080932617188
0.155	-0.0	-0.0	-0.0	3.758071422576904	-1.2841331958770752	-41.311561584472656	3.509886741638184	-6.472455978393555	-448.0144958496094	-0.0	-0.0	-0.0	-0.0	-0.0	-0.0	147187.25	-34695.359375	-749.7515869140625
0.1555	-0.0	-0.0	-0.0	3.671331167221069	-1.796296000480652	-37.42824172973633	3.295581817626953	-6.334128856658936	-451.3074035644531	-0.0	-0.0	-0.0	-0.0	-0.0	-0.0	147794.859375	-34415.46875	-774.9716796875
0.156	-0.0	-0.0	-0.0	3.593667984008789	-1.794377684593201	-33.598731994628906	3.30751895904541	-6.750551223754883	-453.8492431640625	-0.0	-0.0	-0.0	-0.0	-0.0	-0.0	148885.78125	-34572.08984375	-889.2835083007812
0.1565	-0.0	-0.0	-0.0	3.670918464660645	-2.164414644241333	-31.03224754333496	3.51074481010437	-7.230025291442871	-457.0901184082031	-0.0	-0.0	-0.0	-0.0	-0.0	-0.0	150206.515625	-34601.23828125	-757.8469848632812
0.157	-0.0	-0.0	-0.0	3.950647592544556	-2.635506629943848	-27.54803466796875	3.193588256835937	-7.5451741218566895	-460.531005859375	-0.0	-0.0	-0.0	-0.0	-0.0	-0.0	150877.171875	-34593.140625	-766.6832885742188
0.1575	-0.0	-0.0	-0.0	3.899570941925049	-2.584545135498047	-25.832990646362305	3.573857307434082	-7.82237958908081	-463.32421875	-0.0	-0.0	-0.0	-0.0	-0.0	-0.0	151658.359375	-34828.875	-791.8720092773438
0.158	-0.0	-0.0	-0.0	3.899747610092163	-2.928465843200684	-21.745275497436523	3.282299041748047	-8.137795448303223	-464.2713317871094	-0.0	-0.0	-0.0	-0.0	-0.0	-0.0	152525.53125	-34720.265625	-872.609619140625
0.1585	-0.0	-0.0	-0.0	2.735574722290039	-2.0339484214782715	-15.363492012023926	3.156002998352051	-8.125595092773438	-469.2065124511719	-0.0	-0.0	-0.0	-0.0	-0.0	-0.0	153216.59375	-34667.8203125	-919.404541015625
0.159	-0.0	-0.0	-0.0	-0.0	-0.0	-0.0	2.623875856399536	-8.567203521728516	-472.1538696289063	-0.0	-0.0	-0.0	-0.0	-0.0	-0.0	154440.234375	-34737.859375	-1004.267578125
0.1595	-0.0	-0.0	-0.0	-0.0	-0.0	-0.0	2.59830379486084	-8.980827331542969	-474.7908935546875	-0.0	-0.0	-0.0	-0.0	-0.0	-0.0	155097.234375	-34515.0859375	-1101.8941650390625
0.16	-0.0	-0.0	-0.0	-0.0	-0.0	-0.0	2.306480407714844	-9.211111068725586	-476.1863098144531	-0.0	-0.0	-0.0	-0.0	-0.0	-0.0	155685.875	-34465.37109375	-1068.604736328125
0.1605	-0.0	-0.0	-0.0	-0.0	-0.0	-0.0	1.9740915298461916	-9.16309928894043	-479.4868469238281	-0.0	-0.0	-0.0	-0.0	-0.0	-0.0	156422.546875	-34413.1875	-1035.41064453125
0.161	-0.0	-0.0	-0.0	-0.0	-0.0	-0.0	1.6226991415023804	-9.601272583007812	-480.3893737792969	-0.0	-0.0	-0.0	-0.0	-0.0	-0.0	156824.359375	-34308.5859375	-1043.202880859375
0.1615	-0.0	-0.0	-0.0	-0.0	-0.0	-0.0	1.6703181266784668	-10.344377517700195	-481.8890380859375	-0.0	-0.0	-0.0	-0.0	-0.0	-0.0	157620.125	-34155.06640625	-1102.6163330078125
0.162	-0.0	-0.0	-0.0	-0.0	-0.0	-0.0	1.5861858129501345	-10.058110237121582	-484.333984375	-0.0	-0.0	-0.0	-0.0	-0.0	-0.0	158208.015625	-34169.05078125	-1048.37353515625
0.1625	-0.0	-0.0	-0.0	-0.0	-0.0	-0.0	1.9516372680664065	-10.130996704101562	-487.353759765625	-0.0	-0.0	-0.0	-0.0	-0.0	-0.0	159235.375	-33802.5625	-932.9718017578124
0.163	-0.0	-0.0	-0.0	-0.0	-0.0	-0.0	2.1028780937194824	-10.484214782714844	-488.7722473144531	-0.0	-0.0	-0.0	-0.0	-0.0	-0.0	159838.203125	-33913.3359375	-980.0807495117188
0.1635	-0.0	-0.0	-0.0	-0.0	-0.0	-0.0	1.9878675937652588	-10.301279067993164	-492.7562255859375	-0.0	-0.0	-0.0	-0.0	-0.0	-0.0	160906.578125	-33744.0546875	-854.7787475585938
0.164	-0.0	-0.0	-0.0	-0.0	-0.0	-0.0	2.260645866394043	-10.307435035705566	-494.2951049804688	-0.0	-0.0	-0.0	-0.0	-0.0	-0.0	161837.203125	-33652.99609375	-864.5306396484375
0.1645	-0.0	-0.0	-0.0	-0.0	-0.0	-0.0	2.519858837127685	-9.918290138244627	-495.7952880859375	-0.0	-0.0	-0.0	-0.0	-0.0	-0.0	162418.28125	-33526.5078125	-893.8517456054688
0.165	-0.0	-0.0	-0.0	-0.0	-0.0	-0.0	2.5368101596832275	-9.758753776550291	-498.5517272949219	-0.0	-0.0	-0.0	-0.0	-0.0	-0.0	162821.546875	-33682.1953125	-745.4015502929688
0.1655	-0.0	-0.0	-0.0	-0.0	-0.0	-0.0	2.6878468990325928	-9.919330596923828	-498.6569519042969	-0.0	-0.0	-0.0	-0.0	-0.0	-0.0	163583.015625	-33395.03515625	-576.1503295898438
0.166	-0.0	-0.0	-0.0	-0.0	-0.0	-0.0	2.812161922454834	-10.086216926574709	-501.277099609375	-0.0	-0.0	-0.0	-0.0	-0.0	-0.0	163785.203125	-33212.62890625	-552.29296875
0.1665	-0.0	-0.0	-0.0	-0.0	-0.0	-0.0	3.069487333297729	-9.724077224731444	-501.97509765625	-0.0	-0.0	-0.0	-0.0	-0.0	-0.0	164075.75	-33099.3515625	-534.2395629882812
0.167	-0.0	-0.0	-0.0	-0.0	-0.0	-0.0	2.776754379272461	-9.195032119750977	-502.04638671875	-0.0	-0.0	-0.0	-0.0	-0.0	-0.0	164403.5	-32853.9765625	-474.9853210449219
0.1675	-0.0	-0.0	-0.0	-0.0	-0.0	-0.0	2.7851665019989014	-9.28208351135254	-502.3963317871094	-0.0	-0.0	-0.0	-0.0	-0.0	-0.0	164473.5	-32527.51953125	-664.7335205078125
0.168	-0.0	-0.0	-0.0	-0.0	-0.0	-0.0	2.6263458728790283	-9.1319580078125	-503.0217590332031	-0.0	-0.0	-0.0	-0.0	-0.0	-0.0	164697.296875	-32268.21875	-744.7649536132812
0.1685	-0.0	-0.0	-0.0	-0.0	-0.0	-0.0	2.723108291625977	-8.843180656433105	-501.5189514160156	-0.0	-0.0	-0.0	-0.0	-0.0	-0.0	164648.359375	-32257.96484375	-901.8871459960938
0.169	-0.0	-0.0	-0.0	-0.0	-0.0	-0.0	2.102055549621582	-8.27535343170166	-501.2451477050781	-0.0	-0.0	-0.0	-0.0	-0.0	-0.0	165044.65625	-31948.44921875	-798.9608154296875
0.1695	-0.0	-0.0	-0.0	-0.0	-0.0	-0.0	1.847939729690552	-8.348685264587402	-503.71923828125	-0.0	-0.0	-0.0	-0.0	-0.0	-0.0	165288.765625	-31719.263671875	-934.4557495117188
0.17	-0.0	-0.0	-0.0	-0.0	-0.0	-0.0	1.6312401294708252	-8.064287185668945	-503.5054321289063	-0.0	-0.0	-0.0	-0.0	-0.0	-0.0	165689.21875	-31405.013671875	-1096.011962890625
0.1705	-0.0	-0.0	-0.0	-0.0	-0.0	-0.0	1.732841968536377	-7.718127727508545	-504.03997802734375	-0.0	-0.0	-0.0	-0.0	-0.0	-0.0	166092.203125	-31260.52734375	-995.4703369140624
0.171	-0.0	-0.0	-0.0	-0.0	-0.0	-0.0	1.8287732601165767	-7.4870285987854	-504.7388305664063	-0.0	-0.0	-0.0	-0.0	-0.0	-0.0	166333.921875	-31045.080078125	-1141.5538330078125
0.1715	-0.0	-0.0	-0.0	-0.0	-0.0	-0.0	1.685504913330078	-7.432353973388672	-505.1411437988281	-0.0	-0.0	-0.0	-0.0	-0.0	-0.0	166605.3125	-30708.19140625	-1137.064208984375
0.17200000000000001	-0.0	-0.0	-0.0	-0.0	-0.0	-0.0	1.8419750928878784	-7.154056549072266	-504.8478088378906	-0.0	-0.0	-0.0	-0.0	-0.0	-0.0	166924.640625	-30386.484375	-1047.916015625
0.17250000000000001	-0.0	-0.0	-0.0	-0.0	-0.0	-0.0	1.8966869115829468	-7.147799015045166	-505.7878112792969	-0.0	-0.0	-0.0	-0.0	-0.0	-0.0	167336.6875	-29945.673828125	-1088.8487548828125
0.17300000000000001	-0.0	-0.0	-0.0	-0.0	-0.0	-0.0	1.7070035934448242	-7.379535675048828	-507.4865417480469	-0.0	-0.0	-0.0	-0.0	-0.0	-0.0	167537.328125	-29990.12890625	-922.2699584960938
0.17350000000000002	-0.0	-0.0	-0.0	-0.0	-0.0	-0.0	1.3524372577667236	-7.7173075675964355	-509.5899353027344	-0.0	-0.0	-0.0	-0.0	-0.0	-0.0	167998.75	-29623.8515625	-1031.958251953125
0.17400000000000002	-0.0	-0.0	-0.0	-0.0	-0.0	-0.0	1.380357027053833	-7.744748592376709	-510.1328125	-0.0	-0.0	-0.0	-0.0	-0.0	-0.0	168408.609375	-29298.13671875	-1124.4288330078125
0.17450000000000002	-0.0	-0.0	-0.0	-0.0	-0.0	-0.0	0.6155398488044739	-8.01504898071289	-508.8896484375	-0.0	-0.0	-0.0	-0.0	-0.0	-0.0	168228.65625	-28708.33203125	-1217.8236083984375
0.17500000000000002	-0.0	-0.0	-0.0	-0.0	-0.0	-0.0	-0.1496035158634185	-8.125595092773438	-508.36474609375	-0.0	-0.0	-0.0	-0.0	-0.0	-0.0	167990.90625	-28300.232421875	-1444.6484375
0.17550000000000002	-0.0	-0.0	-0.0	-0.0	-0.0	-0.0	-0.8262844085693359	-8.390560150146484	-508.9334411621094	-0.0	-0.0	-0.0	-0.0	-0.0	-0.0	167734.28125	-27948.8125	-1756.273681640625
0.176	-0.0	-0.0	-0.0	-0.0	-0.0	-0.0	-1.3634434938430786	-8.832168579101562	-509.7613525390625	-0.0	-0.0	-0.0	-0.0	-0.0	-0.0	167693.5	-27378.546875	-1901.7115478515625
0.1765	-0.0	-0.0	-0.0	-0.0	-0.0	-0.0	-1.9516372680664065	-8.953009605407715	-509.2098693847656	-0.0	-0.0	-0.0	-0.0	-0.0	-0.0	167578.296875	-26676.587890625	-2000.5238037109373
0.177	-0.0	-0.0	-0.0	-0.0	-0.0	-0.0	-2.3995985984802246	-9.15308952331543	-509.1910400390625	-0.0	-0.0	-0.0	-0.0	-0.0	-0.0	167561.5625	-26612.26953125	-2111.65185546875
0.1775	-0.0	-0.0	-0.0	-0.0	-0.0	-0.0	-2.745834827423096	-9.590654373168944	-508.7469787597656	-0.0	-0.0	-0.0	-0.0	-0.0	-0.0	167092.984375	-25753.208984375	-2292.732666015625
0.178	-0.0	-0.0	-0.0	-0.0	-0.0	-0.0	-3.3105292320251465	-9.325986862182615	-505.9048767089844	-0.0	-0.0	-0.0	-0.0	-0.0	-0.0	166995.640625	-25592.166015625	-2407.510498046875
